<?xml version="1.0" encoding="UTF-8" standalone="no"?>
<!-- Created with Inkscape (http://www.inkscape.org/) -->

<svg
   xmlns:dc="http://purl.org/dc/elements/1.1/"
   xmlns:cc="http://creativecommons.org/ns#"
   xmlns:rdf="http://www.w3.org/1999/02/22-rdf-syntax-ns#"
   xmlns:svg="http://www.w3.org/2000/svg"
   xmlns="http://www.w3.org/2000/svg"
   xmlns:sodipodi="http://sodipodi.sourceforge.net/DTD/sodipodi-0.dtd"
   xmlns:inkscape="http://www.inkscape.org/namespaces/inkscape"
   width="109.49119mm"
   height="36.689884mm"
   viewBox="0 0 109.49119 36.689884"
   version="1.1"
   id="svg8"
   inkscape:version="0.92.1 r15371"
   sodipodi:docname="logo_slogan.svg"
   inkscape:export-filename="E:\fremio_slogan.png"
   inkscape:export-xdpi="556.29321"
   inkscape:export-ydpi="556.29321">
  <defs
     id="defs2" />
  <sodipodi:namedview
     id="base"
     pagecolor="#ffffff"
     bordercolor="#666666"
     borderopacity="1.0"
     inkscape:pageopacity="0.0"
     inkscape:pageshadow="2"
     inkscape:zoom="2.1926275"
     inkscape:cx="100.86231"
     inkscape:cy="46.290723"
     inkscape:document-units="mm"
     inkscape:current-layer="layer3"
     showgrid="false"
     fit-margin-top="0"
     fit-margin-left="0"
     fit-margin-right="0"
     fit-margin-bottom="0"
     inkscape:snap-nodes="false"
     inkscape:window-width="1920"
     inkscape:window-height="1057"
     inkscape:window-x="-8"
     inkscape:window-y="-8"
     inkscape:window-maximized="1" />
  <metadata
     id="metadata5">
    <rdf:RDF>
      <cc:Work
         rdf:about="">
        <dc:format>image/svg+xml</dc:format>
        <dc:type
           rdf:resource="http://purl.org/dc/dcmitype/StillImage" />
        <dc:title />
      </cc:Work>
    </rdf:RDF>
  </metadata>
  <g
     inkscape:label="Layer 1"
     inkscape:groupmode="layer"
     id="layer1"
     transform="translate(-85.275547,-117.06158)">
    <path
       style="fill:#3771c8;fill-opacity:1;stroke-width:0.26458332"
       d="m 98.927917,151.02033 c 0.1376,-0.28926 0.304418,-0.57805 0.504509,-0.86982 0.208477,-0.30399 0.44914,-0.61128 0.718334,-0.92546 0.53841,-0.62839 1.19096,-1.28491 1.9286,-1.99975 0.36883,-0.35742 0.64908,-0.73816 0.85504,-1.14138 0.20597,-0.40323 0.33767,-0.82861 0.40836,-1.27598 0.0708,-0.44735 0.0806,-0.91683 0.0436,-1.40669 -0.037,-0.48986 -0.12109,-1.0005 -0.23811,-1.53121 -0.23405,-1.06143 -0.60068,-2.20247 -0.98934,-3.41736 -0.38866,-1.2149 -0.79934,-2.50316 -1.12179,-3.85832 -0.0806,-0.33878 -0.12917,-0.65182 -0.14964,-0.94194 -0.0205,-0.29013 -0.0128,-0.55776 0.02,-0.80513 0.0328,-0.24735 0.0907,-0.47445 0.16988,-0.68492 0.0792,-0.21048 0.17971,-0.4041 0.29834,-0.58359 0.23724,-0.35899 0.54623,-0.66205 0.90006,-0.93244 0.35381,-0.27039 0.75203,-0.50821 1.16735,-0.73712 0.41532,-0.22888 0.84794,-0.44892 1.26964,-0.68348 0.42169,-0.23456 0.83251,-0.48363 1.2055,-0.77094 0.37298,-0.28733 0.70785,-0.61265 0.97702,-0.99986 0.13464,-0.1936 0.25288,-0.40273 0.35118,-0.63015 0.0983,-0.22742 0.17675,-0.47299 0.23189,-0.7401 0.10987,-0.53432 0.15288,-0.99047 0.1498,-1.39153 -0.003,-0.40108 -0.0517,-0.74734 -0.12453,-1.06269 -0.14569,-0.63072 -0.38728,-1.13729 -0.55061,-1.70992 -0.0817,-0.28632 -0.14372,-0.58903 -0.16444,-0.93201 -0.0207,-0.34297 -2.4e-4,-0.72635 0.0836,-1.17345 0.0838,-0.44712 0.23083,-0.95791 0.46273,-1.55661 0.047,-0.12131 0.14265,-0.2935 0.1968,-0.42224 a 17.173301,17.173301 0 0 0 -12.033547,0.68737 17.173301,17.173301 0 0 0 -8.753056,22.65466 17.173301,17.173301 0 0 0 12.182859,9.84207 z"
       id="path828"
       inkscape:connector-curvature="0" />
    <path
       style="fill:#ff9955;fill-opacity:1;stroke-width:0.26458332"
       d="m 121.41122,128.38464 a 17.173301,17.173301 0 0 0 -10.62089,-9.43995 c -0.0542,0.12874 -0.14985,0.30089 -0.19681,0.42224 -0.23187,0.59871 -0.37891,1.10949 -0.46273,1.55661 -0.0838,0.4471 -0.1043,0.83047 -0.0836,1.17346 0.0207,0.34296 0.0828,0.64568 0.16445,0.932 0.16334,0.57262 0.40495,1.07918 0.5506,1.70992 0.0729,0.31533 0.12146,0.66162 0.12453,1.06269 0.003,0.40107 -0.0395,0.8573 -0.1498,1.39153 -0.0549,0.26716 -0.13361,0.51268 -0.23189,0.7401 -0.0983,0.22742 -0.21659,0.43655 -0.35118,0.63015 -0.26917,0.38722 -0.60404,0.71253 -0.97702,0.99986 -0.37298,0.28731 -0.78381,0.53639 -1.2055,0.77094 -0.4217,0.23456 -0.85432,0.4546 -1.26964,0.68349 -0.41532,0.22889 -0.81354,0.46673 -1.16735,0.73711 -0.35383,0.27039 -0.66282,0.57345 -0.90006,0.93245 -0.11866,0.17948 -0.21919,0.37309 -0.29834,0.58358 -0.0791,0.21049 -0.13702,0.43759 -0.16988,0.68493 -0.0327,0.24737 -0.0404,0.515 -0.02,0.80512 0.0205,0.29011 0.069,0.60316 0.14963,0.94194 0.32245,1.35516 0.73314,2.64342 1.12179,3.85832 0.38866,1.21489 0.75529,2.35594 0.98934,3.41736 0.11702,0.53072 0.20114,1.04135 0.23811,1.53121 0.037,0.48987 0.0271,0.95933 -0.0436,1.4067 -0.0707,0.44737 -0.20236,0.87275 -0.40835,1.27597 -0.20597,0.40322 -0.48621,0.78396 -0.85505,1.14138 -0.73764,0.71484 -1.39018,1.37136 -1.9286,1.99975 -0.26919,0.31419 -0.50985,0.62147 -0.71833,0.92546 -0.20009,0.29177 -0.3669,0.58056 -0.50451,0.86983 a 17.173301,17.173301 0 0 0 10.47205,-1.08971 17.173301,17.173301 0 0 0 8.75259,-22.65445 z"
       id="path10"
       inkscape:connector-curvature="0" />
  </g>
  <g
     inkscape:groupmode="layer"
     id="layer4"
     inkscape:label="shadow"
     transform="translate(-85.275547,-117.06158)">
    <path
       style="fill:#ca5000;fill-opacity:1;stroke:none;stroke-width:0.1;stroke-linecap:butt;stroke-linejoin:miter;stroke-miterlimit:4;stroke-dasharray:none;stroke-opacity:1"
       d="m 113.25665,150.73799 a 17.173301,17.173301 0 0 0 0.93483,-0.47129 17.173301,17.173301 0 0 0 1.44849,-0.92139 17.173301,17.173301 0 0 0 1.34875,-1.06195 17.173301,17.173301 0 0 0 1.23662,-1.19063 17.173301,17.173301 0 0 0 1.11104,-1.30845 17.173301,17.173301 0 0 0 0.97514,-1.41283 17.173301,17.173301 0 0 0 0.82889,-1.50327 17.173301,17.173301 0 0 0 0.67489,-1.5782 17.173301,17.173301 0 0 0 0.51418,-1.63814 17.173301,17.173301 0 0 0 0.34779,-1.68103 17.173301,17.173301 0 0 0 0.17828,-1.70739 17.173301,17.173301 0 0 0 0.007,-1.71617 17.173301,17.173301 0 0 0 -0.12195,-1.26298 l -2.49701,-3.84834 -8.80256,7.26674 -1.72341,9.32759 z"
       id="path870"
       inkscape:connector-curvature="0" />
    <path
       style="fill:#214478;fill-opacity:1;stroke:none;stroke-width:0.1;stroke-linecap:butt;stroke-linejoin:miter;stroke-miterlimit:4;stroke-dasharray:none;stroke-opacity:1"
       d="m 95.451537,149.87551 a 17.173301,17.173301 0 0 0 1.052648,0.44907 17.173301,17.173301 0 0 0 1.638144,0.51211 17.173301,17.173301 0 0 0 0.785481,0.18345 c 0.137599,-0.28926 0.304271,-0.57794 0.504362,-0.86971 0.208481,-0.30399 0.449617,-0.61135 0.718818,-0.92553 0.53841,-0.62839 1.19093,-1.28452 1.92857,-1.99936 0.36883,-0.35742 0.64876,-0.73831 0.85472,-1.14153 0.20597,-0.40323 0.33756,-0.82852 0.40825,-1.27589 0.0708,-0.44735 0.0809,-0.91678 0.0439,-1.40664 -0.037,-0.48986 -0.12121,-1.00098 -0.23823,-1.53168 -0.23405,-1.06143 -0.60042,-2.20248 -0.98908,-3.41737 -0.38866,-1.2149 -0.79945,-2.503 -1.1219,-3.85816 -0.0806,-0.33878 -0.12939,-0.65194 -0.14986,-0.94206 -0.0205,-0.29013 -0.0126,-0.55775 0.0202,-0.80512 0.0328,-0.24735 0.0908,-0.47424 0.17002,-0.68471 0.0792,-0.21048 0.17954,-0.40394 0.29817,-0.58343 0.23724,-0.35899 0.54638,-0.66237 0.90021,-0.93276 0.3538,-0.27039 0.75204,-0.508 1.16737,-0.73691 0.0449,-0.0248 0.0921,-0.0493 0.13745,-0.0739 l -3.1042,-5.20692 -6.405293,7.56646 c 4.621355,10.15831 2.180788,15.5207 1.380278,17.68058 z"
       id="path870-9"
       inkscape:connector-curvature="0" />
  </g>
  <g
     inkscape:groupmode="layer"
     id="layer2"
     inkscape:label="Text_1"
     transform="translate(-85.275547,-117.06158)">
    <path
       style="font-style:normal;font-variant:normal;font-weight:bold;font-stretch:normal;font-size:39.26235199px;line-height:60.84999847;font-family:'Century Gothic';-inkscape-font-specification:'Century Gothic Bold';letter-spacing:0px;word-spacing:0px;fill:#ffffff;fill-opacity:1;stroke:none;stroke-width:0.98155874"
       d="m 91.739752,147.74757 a 17.173301,17.173301 0 0 0 0.240295,0.2036 17.173301,17.173301 0 0 0 1.413867,0.97358 17.173301,17.173301 0 0 0 1.504301,0.82734 17.173301,17.173301 0 0 0 1.578715,0.67335 17.173301,17.173301 0 0 0 0.496611,0.15503 v -13.6338 h 3.316589 v -4.44727 h -3.316589 l 0.01912,-2.60759 c 0,-0.6007 0.102467,-0.99685 0.306958,-1.18856 0.281176,-0.25561 0.728563,-0.38344 1.342037,-0.38344 0.485667,0 1.105256,0.10881 1.859324,0.32608 v -3.98787 c -1.367543,-0.49845 -2.594557,-0.74776 -3.680918,-0.74776 -1.508124,0 -2.677566,0.3391 -3.508313,1.01648 -0.817965,0.66459 -1.29705,1.57205 -1.437638,2.72231 -0.07668,0.49845 -0.121578,2.11528 -0.134359,4.85035 h -1.859319 v 4.44727 h 1.859318 z"
       id="text837"
       inkscape:connector-curvature="0" />
    <text
       xml:space="preserve"
       style="font-style:normal;font-variant:normal;font-weight:bold;font-stretch:normal;font-size:34.07416153px;line-height:1.25;font-family:'Century Gothic';-inkscape-font-specification:'Century Gothic Bold';letter-spacing:0px;word-spacing:0px;fill:#ffffff;fill-opacity:1;stroke:none;stroke-width:0.85185403"
       x="99.41597"
       y="159.20454"
       id="text845"
       transform="scale(1.0899233,0.91749576)"><tspan
         sodipodi:role="line"
         id="tspan843"
         x="99.41597"
         y="159.20454"
         style="font-style:normal;font-variant:normal;font-weight:bold;font-stretch:normal;font-family:'Century Gothic';-inkscape-font-specification:'Century Gothic Bold';fill:#ffffff;stroke-width:0.85185403">r</tspan></text>
  </g>
  <g
     inkscape:groupmode="layer"
     id="layer3"
     inkscape:label="Text_2"
     transform="translate(-85.275547,-117.06158)">
    <text
       xml:space="preserve"
       style="font-style:normal;font-variant:normal;font-weight:bold;font-stretch:normal;font-size:29.87089539px;line-height:1.25;font-family:'Century Gothic';-inkscape-font-specification:'Century Gothic Bold';letter-spacing:0px;word-spacing:0px;fill:#ffffff;fill-opacity:1;stroke:none;stroke-width:0.74677235"
       x="122.51067"
       y="145.51851"
       id="text850"><tspan
         sodipodi:role="line"
         id="tspan848"
         x="122.51067"
         y="145.51851"
         style="font-style:normal;font-variant:normal;font-weight:bold;font-stretch:normal;font-family:'Century Gothic';-inkscape-font-specification:'Century Gothic Bold';fill:#ffffff;stroke-width:0.74677235">emio</tspan></text>
    <path
       style="fill:#ff9955;fill-opacity:1;stroke-width:2.1570456;stroke-miterlimit:4;stroke-dasharray:none"
       d="m 173.34149,128.75699 c 0.55623,-0.009 1.1106,-0.22021 1.53686,-0.64647 l 1.62832,-1.62832 c 0.87107,-0.87107 0.87107,-2.27345 0,-3.14451 l -1.62832,-1.62885 c -0.42626,-0.42625 -0.98063,-0.63739 -1.53686,-0.64647 z"
       id="path1067"
       inkscape:connector-curvature="0" />
    <path
       style="fill:#3771c8;fill-opacity:1;stroke-width:2.1570456;stroke-miterlimit:4;stroke-dasharray:none"
       d="m 173.34149,128.75699 v -7.69462 c -0.58044,-0.009 -1.16285,0.20167 -1.60766,0.64647 l -1.62884,1.62885 c -0.87106,0.87106 -0.87106,2.27344 0,3.14451 l 1.62884,1.62832 c 0.44481,0.44481 1.02722,0.65595 1.60766,0.64647 z"
       id="rect852"
       inkscape:connector-curvature="0" />
    <text
       xml:space="preserve"
       style="font-style:normal;font-variant:normal;font-weight:normal;font-stretch:normal;font-size:7.23832321px;line-height:1.25;font-family:'Segoe UI';-inkscape-font-specification:'Segoe UI';letter-spacing:0px;word-spacing:0px;fill:#ffffff;fill-opacity:1;stroke:none;stroke-width:0.18095808"
       x="118.37623"
       y="152.04791"
       id="text4498"><tspan
         sodipodi:role="line"
         id="tspan4496"
         x="118.37623"
         y="152.04791"
         style="fill:#ffffff;stroke-width:0.18095808">easy. simple. cheap.</tspan></text>
    <path
       style="fill:#ff9955;fill-opacity:1;stroke-width:0.33828014;stroke-miterlimit:4;stroke-dasharray:none"
       d="m 133.28713,152.28147 c 0.0872,-0.001 0.17417,-0.0345 0.24102,-0.10137 l 0.25537,-0.25537 c 0.1366,-0.1366 0.1366,-0.35653 0,-0.49313 l -0.25537,-0.25544 c -0.0669,-0.0669 -0.15379,-0.1 -0.24102,-0.10138 z"
       id="path1067-4"
       inkscape:connector-curvature="0" />
    <path
       style="fill:#3771c8;fill-opacity:1;stroke-width:0.33828014;stroke-miterlimit:4;stroke-dasharray:none"
       d="m 133.28713,152.28147 v -1.20672 c -0.091,-0.001 -0.18236,0.0317 -0.25211,0.10138 l -0.25544,0.25544 c -0.13661,0.13661 -0.13661,0.35653 0,0.49314 l 0.25544,0.25536 c 0.0697,0.0697 0.1611,0.10294 0.25211,0.10138 z"
       id="rect852-6"
       inkscape:connector-curvature="0" />
    <path
       style="fill:#ff9955;fill-opacity:1;stroke-width:0.33828017;stroke-miterlimit:4;stroke-dasharray:none"
       d="m 157.5157,152.29858 c 0.0872,-10e-4 0.17417,-0.0345 0.24102,-0.10137 l 0.25537,-0.25537 c 0.1366,-0.1366 0.1366,-0.35653 0,-0.49313 l -0.25537,-0.25544 c -0.0669,-0.0669 -0.15379,-0.1 -0.24102,-0.10138 z"
       id="path1067-4-7"
       inkscape:connector-curvature="0" />
    <path
       style="fill:#3771c8;fill-opacity:1;stroke-width:0.33828017;stroke-miterlimit:4;stroke-dasharray:none"
       d="m 157.5157,152.29858 v -1.20672 c -0.091,-0.001 -0.18236,0.0317 -0.25211,0.10138 l -0.25544,0.25544 c -0.13661,0.13661 -0.13661,0.35653 0,0.49314 l 0.25544,0.25536 c 0.0697,0.0697 0.1611,0.10294 0.25211,0.10138 z"
       id="rect852-6-9"
       inkscape:connector-curvature="0" />
    <path
       style="fill:#ff9955;fill-opacity:1;stroke-width:0.33828017;stroke-miterlimit:4;stroke-dasharray:none"
       d="m 180.34488,152.33327 c 0.0872,-0.001 0.17417,-0.0345 0.24102,-0.10137 l 0.25537,-0.25537 c 0.1366,-0.1366 0.1366,-0.35653 0,-0.49313 l -0.25537,-0.25544 c -0.0669,-0.0669 -0.15379,-0.1 -0.24102,-0.10138 z"
       id="path1067-4-4"
       inkscape:connector-curvature="0" />
    <path
       style="fill:#3771c8;fill-opacity:1;stroke-width:0.33828017;stroke-miterlimit:4;stroke-dasharray:none"
       d="m 180.34488,152.33327 v -1.20672 c -0.091,-0.001 -0.18236,0.0317 -0.25211,0.10138 l -0.25544,0.25544 c -0.13661,0.13661 -0.13661,0.35653 0,0.49314 l 0.25544,0.25536 c 0.0697,0.0697 0.1611,0.10294 0.25211,0.10138 z"
       id="rect852-6-0"
       inkscape:connector-curvature="0" />
  </g>
</svg>
